<svg width="20" height="20" viewBox="0 0 20 20" fill="none" xmlns="http://www.w3.org/2000/svg">
<g clip-path="url(#clip0_2_39)">
<path fill-rule="evenodd" clip-rule="evenodd" d="M16.6667 0.833374C18.0474 0.833374 19.1667 1.95267 19.1667 3.33337V16.6667C19.1667 18.0475 18.0474 19.1667 16.6667 19.1667H3.33334C1.95264 19.1667 0.833344 18.0475 0.833344 16.6667V3.33337C0.833344 1.95267 1.95264 0.833374 3.33334 0.833374H16.6667ZM16.6667 2.50004C17.1269 2.50004 17.5 2.87314 17.5 3.33337V16.6667C17.5 17.127 17.1269 17.5 16.6667 17.5H12.5V11.6666H14.2302C14.5888 11.6666 14.9073 11.4371 15.0208 11.0968L15.3899 9.98929C15.5248 9.58454 15.2236 9.16662 14.797 9.16662H12.5V7.49997C12.5 7.08331 12.9167 6.66664 13.3333 6.66664H15C15.4603 6.66664 15.8333 6.29354 15.8333 5.83331V5.26165C15.8333 4.99247 15.6614 4.75112 15.4011 4.68243C14.3088 4.39417 13.3333 4.39417 13.3333 4.39417C11.25 4.39417 10 5.83331 10 7.08331V9.16662H8.33334C7.87311 9.16662 7.50001 9.53971 7.50001 9.99996V10.8333C7.50001 11.2935 7.8731 11.6666 8.33334 11.6666H10V17.5H3.33334C2.87311 17.5 2.50001 17.127 2.50001 16.6667V3.33337C2.50001 2.87314 2.87311 2.50004 3.33334 2.50004H16.6667Z" fill="#0F0F0F"/>
</g>
<defs>
<clipPath id="clip0_2_39">
<rect width="20" height="20" fill="white"/>
</clipPath>
</defs>
</svg>
