<svg width="150" height="150" viewBox="0 0 150 150" fill="none" xmlns="http://www.w3.org/2000/svg">
<rect width="150" height="150" rx="75" fill="#FF7513"/>
<path d="M115.106 41.2703L110.575 30.2461H111.591V26.4747H107.216V30.2461H108.231L103.7 41.2703C101.278 42.6483 99.6375 45.1867 99.6375 48.0153V94.5052C99.6375 98.8568 103.466 102.411 108.153 102.411H110.653C115.341 102.411 119.169 98.8568 119.169 94.5052V48.0153C119.247 45.1867 117.606 42.6483 115.106 41.2703ZM105.575 40.4725L108.7 32.7846V40.1098H108.153C107.294 40.1098 106.356 40.2549 105.575 40.4725ZM110.106 40.1098V32.7846L113.231 40.4725C112.372 40.2549 111.513 40.1098 110.653 40.1098H110.106Z" fill="white"/>
<path d="M59.4813 49.901C63.494 49.901 66.7469 46.8811 66.7469 43.156C66.7469 39.4308 63.494 36.4109 59.4813 36.4109C55.4686 36.4109 52.2156 39.4308 52.2156 43.156C52.2156 46.8811 55.4686 49.901 59.4813 49.901Z" fill="white"/>
<path d="M90.6532 49.6109C88.7782 49.6109 87.0594 50.3362 85.8876 51.4241H82.9969V52.2219L70.4188 52.1493C70.3407 52.1493 70.2625 52.0768 70.1063 52.0768L54.0126 51.8592C54.0126 51.8592 51.7469 51.4241 47.6844 53.8175L38.1531 59.1844C37.45 59.6921 36.9813 60.3449 36.8251 61.2152L34.7938 71.8767L33.9344 71.8042L33.5438 74.5602C32.2157 75.503 31.2782 76.9536 31.0438 78.6943C30.6532 81.958 32.9188 84.8591 36.1219 85.2217C39.325 85.5843 42.2938 83.2634 42.7625 79.9997C42.9969 78.2591 42.4501 76.5185 41.3563 75.358L41.6688 72.747L41.0438 72.6745L42.7625 63.5361L48.8563 60.1998L43.8563 97.4788L32.8407 111.984C31.3563 113.942 31.8251 116.553 33.9344 117.859C36.0438 119.237 38.8563 118.802 40.2625 116.843L51.825 101.395C52.2156 100.888 52.45 100.307 52.5282 99.7271L54.8719 87.325L62.8407 97.9139L63.075 114.958V115.03C63.075 117.279 65.1063 119.164 67.5282 119.164C69.9501 119.164 71.9813 117.351 71.9813 115.03C71.9813 114.885 71.5907 95.5931 71.5907 95.5931C71.5126 95.0129 71.2 94.4326 70.8875 93.9249L62.4501 80.7976L65.4969 58.0965C71.2 58.1691 79.7938 58.1691 82.9969 58.2416V58.8944H85.8876C87.0594 60.0548 88.7782 60.7075 90.6532 60.7075C94.1688 60.7075 97.0594 58.2416 97.0594 55.1955C97.0594 52.1493 94.1688 49.6109 90.6532 49.6109Z" fill="white"/>
</svg>
