<svg width="150" height="150" viewBox="0 0 150 150" fill="none" xmlns="http://www.w3.org/2000/svg">
<rect width="150" height="150" rx="75" fill="#FF7513"/>
<path d="M73.0825 34.5589C73.0825 31.1864 76.0122 28.4666 79.645 28.4666C83.2778 28.4666 86.2075 31.1864 86.2075 34.5589C86.2075 37.9314 83.2778 40.6512 79.645 40.6512C76.0122 40.6512 73.0825 37.9314 73.0825 34.5589ZM44.02 88.1202C44.02 88.1202 59.5669 81.8103 59.645 81.774C60.1919 81.5202 60.3091 81.2663 60.3872 80.7224C60.3872 80.6861 62.3794 70.895 62.3794 70.895L70.5435 80.0696L68.0435 95.6992C67.8872 100.921 75.0356 100.667 75.7388 95.7355L78.1997 80.5048C78.3169 78.7642 77.6919 77.3136 77.106 76.3708L68.4731 65.4917L72.9263 56.8247L72.8481 61.5027C72.8481 63.062 74.2153 64.3675 75.895 64.3675C75.895 64.3675 88.1997 64.3675 88.3169 64.3675C88.5903 64.3675 88.8638 64.2587 89.1372 64.15C90.3481 63.7148 91.2075 62.6269 91.2075 61.3577C91.2075 59.6895 89.7622 58.384 88.0044 58.384L78.8247 58.239V46.4171C78.8247 45.4017 78.5122 43.9874 77.4966 42.8632C76.6372 41.5578 74.7231 40.2885 73.0825 40.1072C70.231 39.7808 67.77 41.0501 66.2856 43.1171C66.2856 43.1171 57.4966 58.0214 57.145 58.8917C56.9888 59.1456 53.4341 76.6609 53.4341 76.6609L40.3091 81.629C36.3638 83.2246 37.8481 89.8246 44.02 88.1202ZM122.223 105.345C121.168 106.542 119.723 107.267 118.122 107.412L117.106 107.521V119.089H103.434V108.718L46.7544 113.722V119.089H33.4731V114.919C33.0825 114.919 33.2778 114.919 33.2388 114.919C31.8325 114.919 30.3872 114.448 29.2544 113.613C27.9653 112.634 27.1841 111.256 27.0278 109.77C26.8716 108.246 27.3794 106.76 28.395 105.599C29.4497 104.402 30.9341 103.677 32.5356 103.532L108.629 96.7871L94.9966 66.0357L92.4575 68.3203L89.9185 65.8906L109.958 47.9039L112.497 50.3335L99.645 61.8653L114.879 96.2069L116.833 96.0256C118.473 95.8806 120.075 96.352 121.325 97.2948C122.614 98.274 123.395 99.652 123.551 101.139C123.708 102.698 123.278 104.185 122.223 105.345ZM120.075 101.501C119.997 100.849 119.684 100.268 119.137 99.8333C118.668 99.4706 118.083 99.2531 117.458 99.2531C117.379 99.2531 117.301 99.2531 117.223 99.2531L32.9263 106.76C32.2231 106.832 31.5981 107.122 31.1294 107.63C30.6606 108.138 30.4653 108.754 30.5435 109.407C30.6216 110.06 30.9341 110.64 31.481 111.075C32.0278 111.51 32.6919 111.691 33.395 111.619L117.692 104.149C118.395 104.076 119.02 103.786 119.489 103.278C119.958 102.771 120.114 102.154 120.075 101.501Z" fill="white"/>
</svg>
