<svg width="150" height="150" viewBox="0 0 150 150" fill="none" xmlns="http://www.w3.org/2000/svg">
<rect width="150" height="150" rx="75" fill="#FF7513"/>
<path d="M75.3984 51.0225C82.1078 51.0225 87.5469 45.9732 87.5469 39.7446C87.5469 33.5159 82.1078 28.4666 75.3984 28.4666C68.689 28.4666 63.25 33.5159 63.25 39.7446C63.25 45.9732 68.689 51.0225 75.3984 51.0225Z" fill="white"/>
<path d="M120.594 91.9278C120.438 91.7102 120.242 91.5289 120.047 91.3476L106.258 79.4532L97.3516 61.684C94.9297 57.1511 91.4141 54.3225 86.1797 54.3225H63.7188C58.4453 54.3225 54.9688 57.1511 52.5469 61.684L43.6406 79.4532L29.8516 91.3476C29.6563 91.5289 29.4609 91.7465 29.3047 91.9278C27.8984 93.052 27 94.7201 27 96.5696C27 99.9421 29.9688 102.698 33.6016 102.698C35.75 102.698 37.625 101.755 38.8359 100.268C38.9531 100.196 39.0703 100.087 39.1484 100.015L53.7578 87.3949C54.3047 86.8872 54.7344 86.307 55.0469 85.6542L59.6953 76.407L59.4609 92.7256L39.0703 103.024C35.3594 104.91 33.6016 108.972 34.9297 112.707C36.2578 116.442 40.2422 118.763 44.4219 118.219L74.9297 110.894L105.438 118.219C109.617 118.763 113.641 116.442 114.93 112.707C116.258 108.972 114.5 104.91 110.789 103.024L90.3984 92.6894L90.1641 76.3708L94.8125 85.618C95.125 86.2707 95.5938 86.8509 96.1016 87.3586L110.711 99.9783C110.828 100.087 110.906 100.16 111.023 100.232C112.234 101.683 114.109 102.662 116.258 102.662C119.891 102.662 122.859 99.9058 122.859 96.5333C122.898 94.6838 122 93.052 120.594 91.9278Z" fill="white"/>
</svg>
